# xmcd CD database file
#
# Track frame offsets:
#	225
#	11917
#	38076
#	71251
#	93378
#	114331
#	150673
#	195140
#
# Disc length: 3019 seconds
#
# Revision: 0
# Processed by: cddbd v1.5.1PL0 Copyright (c) Steve Scherf et al.
# Submitted via: CDex 1.51
#
DISCID=560bc808
DTITLE=DJ Adamo - The Wheel of Time
DYEAR=1999
DGENRE=New Age
TTITLE0=Intro (Sounds of Distant Space)
TTITLE1=Prologue (Sounds of Distant Memories)
TTITLE2=Part I (The Begining)
TTITLE3=Part II (The Great Discovery)
TTITLE4=Part III (Time and Space)
TTITLE5=Part IV (Time and Life)
TTITLE6=Part V (Waiting for the Sunrise)
TTITLE7=Part VI (The End)
EXTD=YEAR: 1999
EXTT0=
EXTT1=
EXTT2=
EXTT3=
EXTT4=
EXTT5=
EXTT6=
EXTT7=
PLAYORDER=
